<svg width="56" height="57" viewBox="0 0 56 57" fill="none" xmlns="http://www.w3.org/2000/svg">
<g clip-path="url(#clip0)">
<path d="M25.4012 4.72816C25.8842 4.72816 26.2762 4.33755 26.2762 3.85431C26.2762 3.37108 25.8842 2.98047 25.4012 2.98047H25.3925C24.9095 2.98047 24.5227 3.37108 24.5227 3.85431C24.5227 4.33755 24.9182 4.72816 25.4012 4.72816Z" fill="white"/>
<path d="M28 4.72816H30.625C31.1089 4.72816 31.5 4.33755 31.5 3.85431C31.5 3.37108 31.1089 2.98047 30.625 2.98047H28C27.5161 2.98047 27.125 3.37108 27.125 3.85431C27.125 4.33755 27.5161 4.72816 28 4.72816Z" fill="white"/>
<path d="M43.75 50.1685V5.60418C43.75 2.71613 41.4006 0.368113 38.5114 0.361997C38.5079 0.361997 38.5044 0.359375 38.5 0.359375H17.5C14.6046 0.359375 12.25 2.71089 12.25 5.60244V50.1685C12.25 53.5406 14.9984 56.2854 18.375 56.2854H37.625C41.0016 56.2854 43.75 53.5406 43.75 50.1685ZM42 44.0516H14V7.35187H42V44.0516ZM14 45.7992H28H42V46.6731C42 49.0823 40.0374 51.0423 37.625 51.0423H28H18.375C15.9626 51.0423 14 49.0823 14 46.6731V45.7992ZM17.5 2.10706H38.4913C38.4948 2.10706 38.4965 2.10881 38.5 2.10881C40.4303 2.10881 42 3.67648 42 5.60418H14V5.60244C14 3.67474 15.5697 2.10706 17.5 2.10706ZM37.625 54.5377H18.375C16.2593 54.5377 14.4918 53.0294 14.0875 51.0336C15.1935 52.118 16.7073 52.79 18.375 52.79H37.625C39.2927 52.79 40.8065 52.118 41.9125 51.0336C41.5083 53.0294 39.7407 54.5377 37.625 54.5377Z" fill="white"/>
<path d="M25.375 48.4204C25.375 49.8657 26.5527 51.0419 28 51.0419C29.4472 51.0419 30.625 49.8657 30.625 48.4204C30.625 46.975 29.4472 45.7988 28 45.7988C26.5527 45.7988 25.375 46.975 25.375 48.4204ZM28 47.5465C28.483 47.5465 28.875 47.938 28.875 48.4204C28.875 48.9027 28.483 49.2942 28 49.2942C27.517 49.2942 27.125 48.9027 27.125 48.4204C27.125 47.938 27.517 47.5465 28 47.5465Z" fill="white"/>
<path d="M20.125 37.9325H35.875C38.2874 37.9325 40.25 35.9724 40.25 33.5632V17.8341C40.25 15.4249 38.2874 13.4648 35.875 13.4648H20.125C17.7126 13.4648 15.75 15.4249 15.75 17.8341V33.5632C15.75 35.9724 17.7126 37.9325 20.125 37.9325ZM17.5 17.8341C17.5 16.3887 18.6777 15.2125 20.125 15.2125H35.875C37.3223 15.2125 38.5 16.3887 38.5 17.8341V33.5632C38.5 35.0086 37.3223 36.1848 35.875 36.1848H20.125C18.6777 36.1848 17.5 35.0086 17.5 33.5632V17.8341Z" fill="white"/>
<path d="M24.5008 28.3244C24.7248 28.3244 24.9488 28.2388 25.1194 28.0684C25.4616 27.7267 25.4616 27.1745 25.1194 26.8328L23.9889 25.7038L25.1194 24.5739C25.4616 24.2322 25.4616 23.68 25.1194 23.3383C24.7773 22.9966 24.2243 22.9966 23.8822 23.3383L22.1331 25.086C21.7909 25.4276 21.7909 25.9799 22.1331 26.3216L23.8822 28.0684C24.0528 28.2388 24.2768 28.3244 24.5008 28.3244Z" fill="white"/>
<path d="M30.8867 28.0684C31.0573 28.2388 31.2813 28.3244 31.5053 28.3244C31.7293 28.3244 31.9533 28.2388 32.124 28.0684L33.8731 26.3216C34.2152 25.9799 34.2152 25.4276 33.8731 25.086L32.124 23.3383C31.7818 22.9966 31.2288 22.9966 30.8867 23.3383C30.5446 23.68 30.5446 24.2322 30.8867 24.5739L32.0172 25.7038L30.8867 26.8328C30.5446 27.1745 30.5446 27.7267 30.8867 28.0684Z" fill="white"/>
<path d="M26.8512 29.153C26.9431 29.1836 27.0367 29.1985 27.1277 29.1985C27.4943 29.1985 27.8364 28.9669 27.9581 28.6007L29.7063 23.3577C29.8594 22.8998 29.6118 22.4043 29.1533 22.2523C28.6922 22.0994 28.1987 22.3467 28.0464 22.8045L26.2973 28.0476C26.1451 28.5064 26.3927 29.001 26.8512 29.153Z" fill="white"/>
<path d="M28 35.3134C33.3069 35.3134 37.625 31.001 37.625 25.7011C37.625 20.4013 33.3069 16.0889 28 16.0889C22.6931 16.0889 18.375 20.4013 18.375 25.7011C18.375 31.001 22.6931 35.3134 28 35.3134ZM28 17.8366C32.3426 17.8366 35.875 21.3643 35.875 25.7011C35.875 30.038 32.3426 33.5657 28 33.5657C23.6574 33.5657 20.125 30.038 20.125 25.7011C20.125 21.3643 23.6574 17.8366 28 17.8366Z" fill="white"/>
</g>
<defs>
<clipPath id="clip0">
<rect y="0.359375" width="56" height="55.926" fill="white"/>
</clipPath>
</defs>
</svg>
