<svg width="50" height="50" viewBox="0 0 50 50" fill="none" xmlns="http://www.w3.org/2000/svg">
<g clip-path="url(#clip0)">
<path d="M7.8442 32.0957C12.0972 42.2203 26.4898 42.2342 30.7486 32.0957C31.2433 30.9181 30.3697 29.6174 29.0952 29.6174H9.49766C8.22032 29.6173 7.35055 30.9204 7.8442 32.0957ZM9.49766 31.0815H29.0953C29.3233 31.0815 29.4888 31.3139 29.3986 31.5285C25.6469 40.4599 12.9512 40.4723 9.19426 31.5285C9.10396 31.3135 9.27001 31.0815 9.49766 31.0815Z" fill="#3E3465"/>
<path d="M10.2509 23.0857C10.2509 21.6342 11.4319 20.4533 12.8834 20.4533C14.3348 20.4533 15.5157 21.6342 15.5157 23.0857C15.5157 23.49 15.8434 23.8178 16.2479 23.8178C16.6523 23.8178 16.98 23.49 16.98 23.0857C16.98 20.8268 15.1422 18.989 12.8834 18.989C10.6244 18.989 8.78662 20.8268 8.78662 23.0857C8.78662 23.49 9.11433 23.8178 9.51876 23.8178C9.92319 23.8178 10.2509 23.4901 10.2509 23.0857Z" fill="#3E3465"/>
<path d="M23.0773 23.0857C23.0773 21.6342 24.2583 20.4533 25.7098 20.4533C27.1613 20.4533 28.3422 21.6342 28.3422 23.0857C28.3422 23.49 28.6699 23.8178 29.0743 23.8178C29.4787 23.8178 29.8064 23.49 29.8064 23.0857C29.8064 20.8268 27.9687 18.989 25.7098 18.989C23.4508 18.989 21.613 20.8268 21.613 23.0857C21.613 23.49 21.9407 23.8178 22.3452 23.8178C22.7496 23.8178 23.0773 23.4901 23.0773 23.0857Z" fill="#3E3465"/>
<path d="M21.7219 4.0333C22.0656 3.82039 22.1717 3.3692 21.9588 3.02539C21.746 2.68168 21.2949 2.57566 20.9509 2.78847C18.3328 4.41001 16.1503 6.66704 14.618 9.32752C6.78312 11.3428 0.760667 18.4578 0.745634 27.2568C0.735286 33.2285 3.58613 38.7934 8.37654 42.2871C8.5914 42.4438 8.65709 42.7279 8.52912 42.9479C7.55499 44.624 6.32256 46.146 4.86639 47.4714C3.7919 48.4495 4.67086 50.2323 6.10282 49.9749C8.81719 49.4872 12.7939 48.3799 16.3244 45.8745C16.5246 45.7324 16.78 45.672 17.0441 45.704C20.4036 46.1127 23.8305 45.614 26.9812 44.1783C27.3491 44.0106 27.5114 43.5764 27.3438 43.2084C27.1761 42.8405 26.7421 42.6782 26.3739 42.8458C23.4526 44.177 20.2931 44.6241 17.2207 44.2504C16.5941 44.1745 15.9749 44.3269 15.477 44.6803C12.1868 47.0152 8.45678 48.0598 5.88288 48.5262C7.43648 47.1064 8.75247 45.4775 9.79513 43.6837C10.3012 42.8133 10.0622 41.7042 9.23939 41.1041C4.82832 37.8871 2.20063 32.7115 2.20991 27.2594C2.22601 17.8542 9.89118 10.2026 19.2968 10.2027C28.7184 10.2027 36.3834 17.8677 36.3834 27.2894C36.3834 32.7986 33.7023 38.0013 29.2114 41.2067C28.8823 41.4415 28.806 41.8988 29.0408 42.2279C29.2757 42.557 29.7328 42.6334 30.0621 42.3985C31.855 41.1188 33.3809 39.545 34.5953 37.77C37.8927 39.8521 41.4385 40.8135 43.8962 41.255C45.327 41.512 46.2081 39.7305 45.1326 38.7515C43.6762 37.4258 42.4439 35.9039 41.4699 34.2279C41.3419 34.0079 41.4076 33.7239 41.6224 33.5672C46.4009 30.0822 49.2638 24.526 49.2534 18.5369C49.2311 5.49464 36.2122 -3.34126 24.1547 1.21009C23.7764 1.3528 23.5854 1.77529 23.7283 2.15356C23.8712 2.53183 24.2938 2.72278 24.6717 2.57996C35.8488 -1.6388 47.7688 6.67729 47.7891 18.5394C47.7984 23.9914 45.1707 29.167 40.7596 32.384C39.9367 32.9841 39.6978 34.0931 40.2039 34.9636C41.2451 36.7552 42.5594 38.3825 44.116 39.8066C41.7899 39.3852 38.4557 38.477 35.3735 36.5296C36.9697 33.7516 37.8475 30.571 37.8475 27.2893C37.8475 16.0884 27.91 7.2997 16.5929 8.93187C17.9379 6.96838 19.6877 5.29306 21.7219 4.0333Z" fill="#3E3465"/>
</g>
<defs>
<clipPath id="clip0">
<rect x="-0.000488281" width="50" height="50" fill="white"/>
</clipPath>
</defs>
</svg>
