<svg width="37" height="38" viewBox="0 0 37 38" fill="none" xmlns="http://www.w3.org/2000/svg">
<g clip-path="url(#clip0)">
<path d="M17.0731 25.7737C17.3556 25.4835 17.3556 25.0138 17.0731 24.7236C16.7902 24.4343 16.332 24.4343 16.0489 24.7236C15.7667 25.0138 15.7667 25.4835 16.0489 25.7737C16.332 26.063 16.7902 26.063 17.0731 25.7737Z" fill="#3E3465"/>
<path d="M13.6451 8.16175C13.6451 12.6621 17.2171 16.3238 21.6076 16.3238C25.9981 16.3238 29.5701 12.6621 29.5701 8.16175C29.5701 3.66136 25.9981 0 21.6076 0C17.2171 0 13.6451 3.66136 13.6451 8.16175ZM28.1225 8.16175C28.1225 11.844 25.1999 14.8397 21.6076 14.8397C18.0152 14.8397 15.0927 11.844 15.0927 8.16175C15.0927 4.4798 18.0152 1.48409 21.6076 1.48409C25.1999 1.48409 28.1225 4.4798 28.1225 8.16175Z" fill="#3E3465"/>
<path d="M8.37403 37.7805C8.6546 38.0704 9.11139 38.0736 9.39564 37.7866L12.9051 34.2427C13.5013 33.6315 13.6826 32.7267 13.4205 31.9401L14.1754 31.1939C14.5818 30.7915 15.1169 30.5697 15.6826 30.5697H25.3057C27.0129 30.5697 28.6265 29.8977 29.8498 28.6774C29.9001 28.6273 29.4677 29.1494 36.4148 20.6386C37.4452 19.3891 37.291 17.5127 36.0709 16.4554C34.8583 15.4079 33.0419 15.5584 32.0087 16.7865L27.7373 21.2866C27.1979 20.6061 26.3754 20.182 25.4867 20.182H17.4147C16.2661 19.6894 15.0474 19.4401 13.7898 19.4401C10.3041 19.4401 7.26048 21.0903 5.62708 24.1843C4.93893 24.0506 4.21317 24.264 3.69104 24.7992L0.247466 28.3394C-0.0336768 28.6284 -0.0342425 29.0961 0.246335 29.386L8.37403 37.7805ZM13.7896 20.9239C14.8983 20.9239 15.9703 21.1526 16.9763 21.6037C17.068 21.6449 17.1667 21.6661 17.2665 21.6661H25.4867C26.2716 21.6661 26.9346 22.3221 26.9346 23.1499C26.9346 23.9683 26.2852 24.6339 25.4867 24.6339H19.5807C19.1811 24.6339 18.8569 24.9662 18.8569 25.3758C18.8569 25.7858 19.1811 26.1177 19.5807 26.1177H25.4867C27.0833 26.1177 28.3821 24.7864 28.3821 23.1499C28.3821 23.0194 28.3731 22.8901 28.3567 22.762C32.4887 18.4083 33.0713 17.7965 33.0962 17.7661C33.6121 17.1419 34.528 17.0628 35.1372 17.5893C35.747 18.1178 35.8242 19.0559 35.3069 19.6836L28.8143 27.6395C27.8662 28.5725 26.6214 29.0859 25.3057 29.0859H15.6826C14.7396 29.0859 13.847 29.4556 13.1699 30.1261L12.5547 30.7347L6.88374 24.9221C8.20913 22.3735 10.6961 20.9239 13.7896 20.9239ZM4.71549 25.8478C4.95421 25.6031 5.32077 25.5591 5.61181 25.7435C5.73711 25.8217 5.37734 25.486 11.8815 32.1437C12.1709 32.4403 12.1553 32.9128 11.8855 33.1894L8.8936 36.2106L1.78102 28.8644L4.71549 25.8478Z" fill="#3E3465"/>
<path d="M20.7391 3.70996V4.57942C19.8965 4.88558 19.2912 5.71039 19.2912 6.67784C19.2912 7.90506 20.2653 8.90383 21.4629 8.90383C21.8619 8.90383 22.1866 9.23665 22.1866 9.64572C22.1866 10.0548 21.8619 10.3876 21.4629 10.3876C21.1537 10.3876 20.8197 10.1884 20.523 9.82634C20.2656 9.51265 19.8091 9.47235 19.5031 9.73589C19.197 9.99971 19.1574 10.4676 19.4148 10.7813C19.8017 11.253 20.2568 11.5818 20.7391 11.7476V12.6136C20.7391 13.0235 21.0632 13.3555 21.4629 13.3555C21.8625 13.3555 22.1866 13.0235 22.1866 12.6136V11.7441C23.0292 11.4377 23.6345 10.6129 23.6345 9.64572C23.6345 8.41822 22.6604 7.41974 21.4629 7.41974C21.0638 7.41974 20.7391 7.08692 20.7391 6.67784C20.7391 6.26877 21.0638 5.93566 21.4629 5.93566C21.7194 5.93566 21.9901 6.06989 22.2458 6.32356C22.5331 6.60855 22.9913 6.60073 23.2694 6.30646C23.5474 6.0119 23.5398 5.54224 23.2527 5.25725C22.8853 4.89282 22.5176 4.68669 22.1866 4.5742V3.70996C22.1866 3.30002 21.8625 2.96777 21.4629 2.96777C21.0632 2.96777 20.7391 3.30002 20.7391 3.70996Z" fill="#3E3465"/>
</g>
<defs>
<clipPath id="clip0">
<rect width="37" height="38" fill="white"/>
</clipPath>
</defs>
</svg>
