<svg width="32" height="32" viewBox="0 0 32 32" fill="none" xmlns="http://www.w3.org/2000/svg">
<circle cx="16" cy="16" r="16" fill="#0073B2"/>
<path d="M9.56817 11.5973C10.6759 11.5973 11.5738 10.6993 11.5738 9.5916C11.5738 8.4839 10.6759 7.58594 9.56817 7.58594C8.46047 7.58594 7.5625 8.4839 7.5625 9.5916C7.5625 10.6993 8.46047 11.5973 9.56817 11.5973Z" fill="white"/>
<path d="M13.4671 13.117V24.2445H16.922V18.7417C16.922 17.2897 17.1952 15.8835 18.9955 15.8835C20.7711 15.8835 20.7931 17.5436 20.7931 18.8334V24.2454H24.2498V18.1431C24.2498 15.1456 23.6045 12.842 20.101 12.842C18.4189 12.842 17.2914 13.7651 16.8303 14.6387H16.7836V13.117H13.4671ZM7.83691 13.117H11.2973V24.2445H7.83691V13.117Z" fill="white"/>
</svg>
