<svg width="32" height="32" viewBox="0 0 32 32" fill="none" xmlns="http://www.w3.org/2000/svg">
<circle cx="16" cy="16.0005" r="16" fill="#22E742"/>
<g clip-path="url(#clip0)">
<path d="M21.4688 17.9638C20.5506 17.9638 19.6881 17.5763 18.9069 16.9419L19.0956 16.0469L19.1019 16.0113C19.2744 15.0606 19.8081 13.4625 21.4681 13.4625C22.0655 13.4627 22.6383 13.7001 23.0607 14.1224C23.4831 14.5448 23.7205 15.1177 23.7206 15.715C23.7196 16.3118 23.4819 16.8839 23.0596 17.3056C22.6373 17.7273 22.0649 17.9642 21.4681 17.9644L21.4688 17.9638ZM21.4688 11.1831C19.3531 11.1831 17.7087 12.5569 17.0419 14.8194C16.0262 13.2925 15.2512 11.4569 14.8025 9.91064H12.5237V15.8381C12.5226 16.4007 12.2986 16.9399 11.9008 17.3377C11.503 17.7355 10.9638 17.9595 10.4012 17.9606C9.83884 17.959 9.29993 17.7348 8.90224 17.3372C8.50455 16.9395 8.2804 16.4006 8.27875 15.8381V9.91064H6V15.8381C6 18.2663 7.97562 20.2556 10.4012 20.2556C12.8294 20.2556 14.8025 18.2669 14.8025 15.8381V14.845C15.245 15.7663 15.7887 16.7038 16.4494 17.5306L15.0531 24.09H17.3838L18.3962 19.3306C19.2819 19.8969 20.3006 20.255 21.4694 20.255C23.9694 20.255 26.0006 18.2106 26.0006 15.7138C26.0006 13.2138 23.9694 11.1825 21.4694 11.1825L21.4688 11.1831Z" fill="white"/>
</g>
<defs>
<clipPath id="clip0">
<rect x="6" y="7" width="20" height="20" fill="white"/>
</clipPath>
</defs>
</svg>
