<svg width="53" height="52" viewBox="0 0 53 52" fill="none" xmlns="http://www.w3.org/2000/svg">
<g clip-path="url(#clip0)">
<path d="M0.926758 24.3992H13.5492C13.3334 33.5911 10.7242 34.6345 7.44719 34.9323L6.18348 35.0889V45.1963L7.64011 45.1183C11.9193 44.8777 16.6504 44.1069 19.8068 40.2135C22.5737 36.8004 23.7935 31.2243 23.7935 22.6645V6.80322H0.926758V24.3992Z" fill="#6579F4" fill-opacity="0.2"/>
<path d="M30.1016 6.80322V24.3992H42.5555C42.3397 33.5911 39.8149 34.6345 36.5379 34.9323L35.3583 35.0889V45.1963L36.7308 45.1183C41.01 44.8777 45.7834 44.1069 48.9398 40.2135C51.7064 36.8004 52.9683 31.2243 52.9683 22.6645V6.80322H30.1016Z" fill="#6579F4" fill-opacity="0.2"/>
</g>
<defs>
<clipPath id="clip0">
<rect x="0.926758" width="52.0415" height="52" fill="white"/>
</clipPath>
</defs>
</svg>
