<svg width="56" height="56" viewBox="0 0 56 56" fill="none" xmlns="http://www.w3.org/2000/svg">
<g clip-path="url(#clip0)">
<path d="M30.3423 43.1078L30.8587 41.3014L32.5964 41.798L32.0799 43.6044L30.3423 43.1078Z" fill="#3E3465"/>
<path d="M29.5039 46.0394C29.1779 47.1825 28.5292 48.2062 27.6304 49L28.8264 50.354C29.9841 49.3317 30.819 48.0108 31.2415 46.5351L31.563 45.4087L29.8254 44.9121L29.5039 46.0394Z" fill="#3E3465"/>
<path d="M3.38232 28.0295L5.12791 27.5656L5.59188 29.3111L3.84629 29.7751L3.38232 28.0295Z" fill="#3E3465"/>
<path d="M6.87378 27.103L8.61937 26.6385L9.08333 28.3846L7.33774 28.8485L6.87378 27.103Z" fill="#3E3465"/>
<path d="M10.3669 26.1767L12.1121 25.7128L12.5761 27.4597L10.8309 27.9232L10.3669 26.1767Z" fill="#3E3465"/>
<path d="M0.26416 54.4577L2.07061 52.6512L3.34783 53.9289L1.54182 55.7349L0.26416 54.4577Z" fill="#3E3465"/>
<path d="M2.97388 51.748L11.1029 43.619L12.3801 44.8967L4.25109 53.0253L2.97388 51.748Z" fill="#3E3465"/>
<path d="M7.48999 52.6512L9.29644 50.8452L10.5737 52.1224L8.76721 53.9284L7.48999 52.6512Z" fill="#3E3465"/>
<path d="M10.1997 49.9416L13.8131 46.3282L15.0903 47.6059L11.4774 51.2188L10.1997 49.9416Z" fill="#3E3465"/>
<path d="M2.07056 47.2319L3.87701 45.4259L5.15423 46.7031L3.34822 48.5091L2.07056 47.2319Z" fill="#3E3465"/>
<path d="M4.78076 44.5223L8.39366 40.9089L9.67088 42.1866L6.05798 45.7995L4.78076 44.5223Z" fill="#3E3465"/>
<path d="M52.6301 27.1219L53.9188 24.9768L49.6007 20.6586C51.3286 17.5931 52.7157 14.3343 53.6868 10.9362L55.9043 3.17232C55.9674 2.95004 56 2.71982 56 2.4874C56 1.11624 54.8846 0 53.4681 0C53.2841 0 53.0989 0.0207284 52.9163 0.0613029L45.6319 1.71692C41.8033 2.58663 38.1335 3.95161 34.6966 5.75454L31.0241 2.08209L28.8781 3.36901C28.1535 2.98797 27.3914 2.67263 26.6028 2.42786L25.9946 0H19.1666L18.5585 2.42874C17.7699 2.67351 17.0078 2.98885 16.2832 3.3699L14.1372 2.08298L9.30702 6.91224L10.5957 9.0574C10.2147 9.78112 9.89932 10.5432 9.65455 11.3327L7.22581 11.94V18.7697L9.65631 19.3779C9.80714 19.8555 9.99855 20.3314 10.2111 20.8068L8.47039 21.3034C3.4828 22.7288 0 27.346 0 32.5342V33.5583L12.2641 32.0103L10.6716 35.3974L11.5576 36.2834L9.73967 39.9197L16.0803 46.2603L19.7166 44.4424L20.6379 45.3637L24.0285 43.4576L22.4607 56H23.4839C28.6712 56 33.2892 52.5163 34.7155 47.5287L35.2104 45.7955C35.6801 46.0059 36.1515 46.1946 36.6221 46.3437L37.2312 48.7742H44.06L44.6682 46.3455C45.4568 46.1007 46.2189 45.7853 46.9435 45.4043L49.0895 46.6912L53.9197 41.862L52.631 39.7168C53.012 38.9931 53.3274 38.231 53.5721 37.4415L56 36.8342V30.0045L53.5713 29.3972C53.3256 28.6069 53.0103 27.8456 52.6301 27.1219ZM46.0319 3.47927L53.3146 1.82365C53.3653 1.81174 53.4178 1.80645 53.5126 1.80645C53.8884 1.80645 54.1935 2.11164 54.1935 2.4874C54.1935 2.55179 54.1847 2.61397 54.1675 2.6744L51.9492 10.4396C51.8768 10.6914 51.7864 10.9362 51.7097 11.1862C48.2864 10.0594 45.6266 7.28005 44.6607 3.8171C45.1154 3.69802 45.5723 3.5838 46.0319 3.47927ZM11.2506 18.3931L11.1135 17.8802L9.03226 17.3593V13.3504L11.1135 12.8304L11.2506 12.3175C11.5179 11.3194 11.9108 10.3681 12.4194 9.49093L12.6866 9.03049L11.5832 7.19229L14.4181 4.35824L16.2563 5.46081L16.7167 5.19443C17.5966 4.68593 18.547 4.29209 19.5424 4.02571L20.0553 3.88855L20.5753 1.80645H24.5851L25.1051 3.88766L25.618 4.02482C26.6134 4.2912 27.5638 4.68416 28.4437 5.19355L28.9041 5.45993L30.7423 4.35736L33.0489 6.66394C31.9723 7.28711 30.9183 7.9513 29.896 8.66356C28.0146 6.59734 25.3988 5.41935 22.5806 5.41935C17.1026 5.41935 12.6452 9.87683 12.6452 15.3548C12.6452 16.9139 13.013 18.4301 13.7054 19.8079L11.9796 20.301C11.6789 19.6659 11.4204 19.0273 11.2506 18.3931ZM20.0699 17.9895L19.1512 18.2524C18.4601 17.4378 18.0645 16.434 18.0645 15.3548C18.0645 12.8648 20.0906 10.8387 22.5806 10.8387C23.7313 10.8387 24.8043 11.2731 25.6317 12.0401C25.0014 12.6037 24.3809 13.1806 23.7802 13.7804C22.4505 15.1101 21.2148 16.5174 20.0699 17.9895ZM27.0072 10.8586C25.8315 9.69248 24.2663 9.03226 22.5806 9.03226C19.0952 9.03226 16.2581 11.8685 16.2581 15.3548C16.2581 16.5959 16.6175 17.7739 17.2795 18.7869L15.4968 19.2963C14.8238 18.0905 14.4516 16.7467 14.4516 15.3548C14.4516 10.8731 18.098 7.22581 22.5806 7.22581C24.818 7.22581 26.9045 8.12815 28.4335 9.72776C27.9502 10.0943 27.4761 10.4722 27.0072 10.8586ZM1.86158 31.5026C2.28144 27.5475 5.08506 24.1494 8.96743 23.0402L18.3565 20.3579C17.044 22.2944 15.8744 24.3293 14.8715 26.4635L13.1744 30.0746L1.86158 31.5026ZM16.4358 44.0622L11.9378 39.5642L12.9045 37.6303L18.3697 43.0955L16.4358 44.0622ZM15.7866 37.9571L22.5445 31.9507L24.0493 33.4564L18.0429 40.2143L15.7866 37.9571ZM19.3219 41.4933L26.5314 33.3832L22.6168 29.4695L14.5067 36.679L12.8467 35.019L16.5064 27.2331C18.6361 22.6988 21.5129 18.6039 25.0575 15.0593C30.064 10.0528 36.1912 6.37771 42.9231 4.31193C44.0547 8.35307 47.16 11.5964 51.158 12.9071C49.0163 18.9894 45.5243 24.5542 40.957 29.1211L38.8766 31.201C36.0893 33.9883 32.9316 36.3826 29.492 38.3148L20.9449 43.1171L19.3219 41.4933ZM48.7742 33.4194C48.7742 37.9011 45.1278 41.5484 40.6452 41.5484C39.2594 41.5484 37.9209 41.1788 36.7196 40.5115L37.2281 38.7311C38.238 39.3851 39.4112 39.7419 40.6452 39.7419C44.1306 39.7419 46.9677 36.9057 46.9677 33.4194C46.9677 31.3284 45.9247 29.4117 44.247 28.243C44.6435 27.7905 45.0175 27.3191 45.395 26.8511C47.4908 28.3722 48.7742 30.8173 48.7742 33.4194ZM40.1547 32.4773L42.2346 30.397C42.5014 30.1306 42.7471 29.847 43.006 29.5754C44.3313 30.389 45.1613 31.8378 45.1613 33.4194C45.1613 35.9094 43.1352 37.9355 40.6452 37.9355C39.573 37.9355 38.5741 37.5452 37.763 36.8625L38.601 33.9287C39.1249 33.452 39.6533 32.9796 40.1547 32.4773ZM24.5146 54.1393L25.9867 42.3577L30.3789 39.8892C32.3962 38.7558 34.3071 37.4548 36.1211 36.0298L32.9766 47.0317C31.8678 50.9158 28.4697 53.7203 24.5146 54.1393ZM54.1935 35.4238L52.1123 35.9438L51.9752 36.4567C51.7079 37.4548 51.315 38.4061 50.8064 39.2833L50.5392 39.7437L51.6426 41.5819L48.8077 44.416L46.9695 43.3134L46.5091 43.5798C45.6292 44.0883 44.6788 44.4821 43.6834 44.7485L43.1705 44.8856L42.6505 46.9677H38.6398L38.1198 44.8865L37.6069 44.7494C36.9798 44.5813 36.3469 44.326 35.7153 44.0278L36.2084 42.3017C37.5813 42.9901 39.0923 43.3548 40.6452 43.3548C46.1232 43.3548 50.5806 38.8974 50.5806 33.4194C50.5806 30.2581 49.0335 27.2855 46.5025 25.4257C47.1675 24.5318 47.7942 23.6131 48.3905 22.6728L48.8077 22.4228L51.6426 25.2568L50.5392 27.095L50.8064 27.5554C51.3141 28.4335 51.7079 29.3839 51.9752 30.382L52.1123 30.8949L54.1935 31.4149V35.4238Z" fill="#3E3465"/>
<path d="M25.7498 36.2746L27.5558 35.2589L28.4414 36.8334L26.6353 37.8491L25.7498 36.2746Z" fill="#3E3465"/>
<path d="M36.0668 31.38L34.8562 30.0393C33.1437 31.5838 31.2852 32.9885 29.3279 34.2132L30.2858 35.7444C32.3317 34.4646 34.2767 32.9955 36.0668 31.38Z" fill="#3E3465"/>
<path d="M22.1145 21.2756L23.5752 22.3376C23.9218 21.8617 24.2786 21.3929 24.6456 20.932L23.233 19.8079C22.8488 20.2881 22.4757 20.7777 22.1145 21.2756Z" fill="#3E3465"/>
<path d="M20.0796 24.357L21.6307 25.2832C21.9324 24.7773 22.2455 24.2794 22.5688 23.789L21.0622 22.7927C20.7226 23.307 20.3958 23.8278 20.0796 24.357Z" fill="#3E3465"/>
<path d="M18.3291 27.6079L19.9561 28.392C20.2123 27.8619 20.4787 27.338 20.7587 26.8211L19.1693 25.9624C18.8764 26.5031 18.5964 27.0517 18.3291 27.6079Z" fill="#3E3465"/>
<path d="M44.2581 19.871C44.2581 14.8905 40.2064 10.8387 35.2259 10.8387C30.2453 10.8387 26.1936 14.8905 26.1936 19.871C26.1936 24.8515 30.2453 28.9033 35.2259 28.9033C40.2064 28.9033 44.2581 24.8515 44.2581 19.871ZM28.0001 19.871C28.0001 15.8868 31.2416 12.6452 35.2259 12.6452C39.2101 12.6452 42.4517 15.8868 42.4517 19.871C42.4517 23.8552 39.2101 27.0968 35.2259 27.0968C31.2416 27.0968 28.0001 23.8552 28.0001 19.871Z" fill="#3E3465"/>
<path d="M40.6451 19.871C40.6451 16.8822 38.2146 14.4517 35.2257 14.4517C32.2369 14.4517 29.8064 16.8822 29.8064 19.871C29.8064 22.8599 32.2369 25.2904 35.2257 25.2904C38.2146 25.2904 40.6451 22.8599 40.6451 19.871ZM31.6128 19.871C31.6128 17.8784 33.2332 16.2581 35.2257 16.2581C37.2183 16.2581 38.8387 17.8784 38.8387 19.871C38.8387 21.8636 37.2183 23.4839 35.2257 23.4839C33.2332 23.4839 31.6128 21.8636 31.6128 19.871Z" fill="#3E3465"/>
</g>
<defs>
<clipPath id="clip0">
<rect width="56" height="56" fill="white"/>
</clipPath>
</defs>
</svg>
