<svg width="72" height="41" viewBox="0 0 72 41" fill="none" xmlns="http://www.w3.org/2000/svg">
<path d="M3.11548 37.0383V13.0038C3.11548 10.5807 6.23086 3.46143 13.1539 3.46143C19.8059 3.46142 23.1924 10.0383 23.1924 12.8076V37.0383" stroke="#3E3465" stroke-width="2"/>
<path d="M23.5385 37.0383V13.0038C23.5385 10.5807 26.6538 3.46143 33.5769 3.46143C40.2288 3.46142 43.6154 10.0383 43.6154 12.8076V37.0383" stroke="#3E3465" stroke-width="2"/>
<path d="M2.76929 26.6538H23.1924" stroke="#3E3465" stroke-width="2"/>
<path d="M61.1643 18.8744L61.107 19.8728L61.1155 19.8732L61.1643 18.8744ZM55.2038 18.5319L55.0826 19.5245L55.1144 19.5284L55.1464 19.5302L55.2038 18.5319ZM55.3847 3.46143V4.46143V3.46143ZM66.7743 4.46143C67.3265 4.46143 67.7743 4.01371 67.7743 3.46143C67.7743 2.90914 67.3265 2.46143 66.7743 2.46143V4.46143ZM42.2308 36.9999H61.1643V34.9999H42.2308V36.9999ZM61.1643 36.9999C64.9645 36.9999 69.8329 33.2944 69.5263 26.7056L67.5284 26.7986C67.7829 32.2662 63.8048 34.9999 61.1643 34.9999V36.9999ZM69.5263 26.7056C69.3725 23.4 67.9763 21.1916 66.239 19.8123C64.5379 18.4618 62.5581 17.9413 61.2131 17.8756L61.1155 19.8732C62.108 19.9217 63.6695 20.326 64.9954 21.3787C66.2851 22.4026 67.4018 24.0761 67.5284 26.7986L69.5263 26.7056ZM61.2217 17.876L55.2612 17.5335L55.1464 19.5302L61.107 19.8727L61.2217 17.876ZM55.325 17.5392C54.0396 17.3823 52.4897 16.9149 51.2818 15.9192C50.1132 14.956 49.1914 13.4425 49.1914 10.9966H47.1914C47.1914 14.0309 48.3733 16.1138 50.0097 17.4625C51.6067 18.7788 53.563 19.3389 55.0826 19.5245L55.325 17.5392ZM49.1914 10.9966C49.1914 8.58747 50.2239 6.98109 51.5048 5.95423C52.8247 4.89623 54.4029 4.46143 55.3847 4.46143V2.46143C53.9434 2.46143 51.925 3.05415 50.2539 4.39373C48.544 5.76443 47.1914 7.92566 47.1914 10.9966H49.1914ZM55.3847 4.46143H66.7743V2.46143H55.3847V4.46143Z" fill="#3E3465"/>
</svg>
