<svg width="572" height="489" viewBox="0 0 572 489" fill="none" xmlns="http://www.w3.org/2000/svg">
<circle cx="11" cy="27" r="10" stroke="#6579F4" stroke-width="2"/>
<circle cx="144" cy="27" r="2" fill="#6579F4" stroke="#6579F4" stroke-width="2"/>
<circle cx="364" cy="75" r="1" fill="#6579F4" stroke="#6579F4" stroke-width="2"/>
<circle cx="232" cy="487" r="1" fill="#6579F4" stroke="#6579F4" stroke-width="2"/>
<circle cx="410" cy="3" r="2" fill="#6579F4" stroke="#6579F4" stroke-width="2"/>
<circle cx="516" cy="330" r="1" fill="#6579F4" stroke="#6579F4" stroke-width="2"/>
<circle cx="407" cy="429" r="10" stroke="#6579F4" stroke-width="2"/>
<circle cx="565" cy="233" r="6" stroke="#6579F4" stroke-width="2"/>
<path d="M485.848 23.4259C486.547 23.1026 487.333 23.6569 487.264 24.4235L485.704 41.6736C485.634 42.4403 484.761 42.8444 484.132 42.401L469.973 32.4249C469.344 31.9816 469.43 31.0232 470.129 30.6999L485.848 23.4259Z" stroke="#93278C" stroke-width="2"/>
<path d="M86.4748 440.1L63.9999 446.375" stroke="#22E742" stroke-width="2" stroke-linecap="round"/>
<path d="M72.0997 432L78.3752 454.475" stroke="#22E742" stroke-width="2" stroke-linecap="round"/>
<path d="M303.392 3.42573L291.589 23.5552" stroke="#22E742" stroke-width="2" stroke-linecap="round"/>
<path d="M287.426 7.58907L307.555 19.3918" stroke="#22E742" stroke-width="2" stroke-linecap="round"/>
</svg>
